<svg width="207" height="15" viewBox="0 0 207 15" fill="none" xmlns="http://www.w3.org/2000/svg">
<path d="M3.5 7.45455C3.5 6.75568 3.67045 6.11861 4.01136 5.54332C4.35227 4.96804 4.81037 4.50994 5.38565 4.16903C5.96094 3.82812 6.59801 3.65767 7.29688 3.65767C7.90199 3.65767 8.46023 3.78764 8.97159 4.04759C9.48722 4.30753 9.91335 4.66335 10.25 5.11506C10.5866 5.5625 10.7955 6.0696 10.8764 6.63636H9.32955C9.24432 6.19744 9.00781 5.83949 8.62003 5.5625C8.23224 5.28125 7.79119 5.14062 7.29688 5.14062C6.87074 5.14062 6.48295 5.24503 6.13352 5.45384C5.78409 5.66264 5.50497 5.94176 5.29616 6.29119C5.08736 6.64062 4.98295 7.02841 4.98295 7.45455C4.98295 7.88068 5.08736 8.26847 5.29616 8.6179C5.50497 8.96733 5.78409 9.24645 6.13352 9.45526C6.48295 9.66406 6.87074 9.76847 7.29688 9.76847C7.79119 9.76847 8.20881 9.62997 8.54972 9.35298C8.89489 9.07173 9.11222 8.71165 9.2017 8.27273H10.7486C10.6676 8.83949 10.4695 9.34872 10.1541 9.80043C9.83878 10.2479 9.43395 10.6016 8.93963 10.8615C8.44957 11.1214 7.90199 11.2514 7.29688 11.2514C6.59801 11.2514 5.96094 11.081 5.38565 10.7401C4.81037 10.3991 4.35227 9.94105 4.01136 9.36577C3.67045 8.79048 3.5 8.15341 3.5 7.45455ZM7.23295 14.2045C6.30398 14.2045 5.4304 14.0298 4.61222 13.6804C3.7983 13.331 3.08026 12.8473 2.4581 12.2294C1.8402 11.6072 1.3544 10.8892 1.00071 10.0753C0.651278 9.26136 0.478693 8.38778 0.482955 7.45455C0.487216 6.52131 0.664062 5.64773 1.01349 4.83381C1.36719 4.01989 1.85298 3.30398 2.47088 2.68608C3.08878 2.06392 3.80469 1.57812 4.61861 1.22869C5.43253 0.879261 6.30398 0.704545 7.23295 0.704545C8.16619 0.704545 9.03977 0.879261 9.85369 1.22869C10.6719 1.57812 11.3878 2.06392 12.0014 2.68608C12.6193 3.30398 13.103 4.01989 13.4524 4.83381C13.8018 5.64773 13.9787 6.52131 13.983 7.45455C13.9872 8.38778 13.8146 9.26136 13.4652 10.0753C13.1158 10.8892 12.6321 11.6072 12.0142 12.2294C11.3963 12.8473 10.6783 13.331 9.86009 13.6804C9.0419 14.0298 8.16619 14.2045 7.23295 14.2045ZM7.23295 12.7216C7.96165 12.7216 8.6456 12.5852 9.2848 12.3125C9.92401 12.0398 10.4844 11.6626 10.9659 11.1811C11.4474 10.6996 11.8246 10.1413 12.0973 9.50639C12.37 8.86719 12.5043 8.18537 12.5 7.46094C12.4957 6.73224 12.3572 6.0483 12.0845 5.40909C11.8118 4.76989 11.4347 4.20952 10.9531 3.72798C10.4716 3.24645 9.91335 2.86932 9.27841 2.59659C8.64347 2.32386 7.96165 2.1875 7.23295 2.1875C6.50852 2.1875 5.82884 2.32386 5.19389 2.59659C4.55895 2.86932 4.00071 3.24858 3.51918 3.73438C3.03764 4.21591 2.65838 4.77628 2.38139 5.41548C2.10866 6.05043 1.97017 6.73224 1.96591 7.46094C1.96165 8.18111 2.09588 8.8608 2.36861 9.5C2.64134 10.1349 3.01847 10.6932 3.5 11.1747C3.9858 11.6562 4.54617 12.0355 5.18111 12.3125C5.82031 12.5852 6.50426 12.7216 7.23295 12.7216ZM21.8883 14V12.8494L26.2093 8.11932C26.7164 7.56534 27.1341 7.08381 27.4622 6.67472C27.7903 6.26136 28.0332 5.87358 28.1909 5.51136C28.3528 5.14489 28.4338 4.76136 28.4338 4.3608C28.4338 3.90057 28.323 3.50213 28.1014 3.16548C27.8841 2.82883 27.5858 2.56889 27.2065 2.38565C26.8272 2.20241 26.4011 2.1108 25.9281 2.1108C25.4252 2.1108 24.9863 2.2152 24.6113 2.42401C24.2406 2.62855 23.9529 2.91619 23.7484 3.28693C23.5481 3.65767 23.448 4.09233 23.448 4.59091H21.9395C21.9395 3.82386 22.1163 3.15057 22.47 2.57102C22.8237 1.99148 23.3052 1.53977 23.9146 1.21591C24.5282 0.892045 25.2164 0.730113 25.9792 0.730113C26.7463 0.730113 27.426 0.892045 28.0183 1.21591C28.6106 1.53977 29.0751 1.97656 29.4118 2.52628C29.7484 3.07599 29.9167 3.6875 29.9167 4.3608C29.9167 4.84233 29.8294 5.31321 29.6547 5.77344C29.4842 6.2294 29.1859 6.73864 28.7598 7.30114C28.3379 7.85937 27.752 8.54119 27.002 9.34659L24.0616 12.4915V12.5938H30.1468V14H21.8883ZM37.0566 14.179C36.0936 14.179 35.2733 13.9169 34.5957 13.3928C33.9181 12.8643 33.4004 12.0994 33.0424 11.098C32.6845 10.0923 32.5055 8.87784 32.5055 7.45455C32.5055 6.03977 32.6845 4.83168 33.0424 3.83026C33.4047 2.82457 33.9245 2.05753 34.6021 1.52912C35.2839 0.996448 36.1021 0.730113 37.0566 0.730113C38.0112 0.730113 38.8272 0.996448 39.5048 1.52912C40.1866 2.05753 40.7065 2.82457 41.0645 3.83026C41.4267 4.83168 41.6078 6.03977 41.6078 7.45455C41.6078 8.87784 41.4288 10.0923 41.0708 11.098C40.7129 12.0994 40.1951 12.8643 39.5176 13.3928C38.84 13.9169 38.0197 14.179 37.0566 14.179ZM37.0566 12.7727C38.0112 12.7727 38.7527 12.3125 39.2811 11.392C39.8095 10.4716 40.0737 9.15909 40.0737 7.45455C40.0737 6.32102 39.9522 5.35582 39.7093 4.55895C39.4707 3.76207 39.1255 3.15483 38.6738 2.73722C38.2264 2.3196 37.6873 2.1108 37.0566 2.1108C36.1106 2.1108 35.3713 2.57741 34.8386 3.51065C34.3059 4.43963 34.0396 5.75426 34.0396 7.45455C34.0396 8.58807 34.1589 9.55114 34.3975 10.3438C34.6362 11.1364 34.9792 11.7393 35.4267 12.1527C35.8784 12.5661 36.4217 12.7727 37.0566 12.7727ZM44.0368 14V12.8494L48.3578 8.11932C48.8649 7.56534 49.2825 7.08381 49.6106 6.67472C49.9387 6.26136 50.1816 5.87358 50.3393 5.51136C50.5012 5.14489 50.5822 4.76136 50.5822 4.3608C50.5822 3.90057 50.4714 3.50213 50.2498 3.16548C50.0325 2.82883 49.7342 2.56889 49.3549 2.38565C48.9757 2.20241 48.5495 2.1108 48.0765 2.1108C47.5737 2.1108 47.1348 2.2152 46.7598 2.42401C46.389 2.62855 46.1014 2.91619 45.8968 3.28693C45.6966 3.65767 45.5964 4.09233 45.5964 4.59091H44.0879C44.0879 3.82386 44.2647 3.15057 44.6184 2.57102C44.9721 1.99148 45.4537 1.53977 46.063 1.21591C46.6767 0.892045 47.3649 0.730113 48.1277 0.730113C48.8947 0.730113 49.5744 0.892045 50.1667 1.21591C50.7591 1.53977 51.2235 1.97656 51.5602 2.52628C51.8968 3.07599 52.0652 3.6875 52.0652 4.3608C52.0652 4.84233 51.9778 5.31321 51.8031 5.77344C51.6326 6.2294 51.3343 6.73864 50.9082 7.30114C50.4863 7.85937 49.9004 8.54119 49.1504 9.34659L46.21 12.4915V12.5938H52.2953V14H44.0368ZM54.9352 14V12.8494L59.2562 8.11932C59.7633 7.56534 60.1809 7.08381 60.5091 6.67472C60.8372 6.26136 61.0801 5.87358 61.2377 5.51136C61.3997 5.14489 61.4806 4.76136 61.4806 4.3608C61.4806 3.90057 61.3699 3.50213 61.1483 3.16548C60.9309 2.82883 60.6326 2.56889 60.2534 2.38565C59.8741 2.20241 59.448 2.1108 58.975 2.1108C58.4721 2.1108 58.0332 2.2152 57.6582 2.42401C57.2875 2.62855 56.9998 2.91619 56.7953 3.28693C56.595 3.65767 56.4949 4.09233 56.4949 4.59091H54.9863C54.9863 3.82386 55.1632 3.15057 55.5169 2.57102C55.8706 1.99148 56.3521 1.53977 56.9615 1.21591C57.5751 0.892045 58.2633 0.730113 59.0261 0.730113C59.7931 0.730113 60.4728 0.892045 61.0652 1.21591C61.6575 1.53977 62.122 1.97656 62.4586 2.52628C62.7953 3.07599 62.9636 3.6875 62.9636 4.3608C62.9636 4.84233 62.8762 5.31321 62.7015 5.77344C62.5311 6.2294 62.2328 6.73864 61.8066 7.30114C61.3848 7.85937 60.7988 8.54119 60.0488 9.34659L57.1085 12.4915V12.5938H63.1937V14H54.9352ZM71.6632 14H70.0012L74.8081 0.909091H76.4444L81.2512 14H79.5893L75.6774 2.98011H75.5751L71.6632 14ZM72.2768 8.88636H78.9757V10.2926H72.2768V8.88636ZM83.0858 14V4.18182H84.5431V5.66477H84.6454C84.8244 5.17898 85.1483 4.7848 85.617 4.48224C86.0858 4.17969 86.6142 4.02841 87.2022 4.02841C87.313 4.02841 87.4515 4.03054 87.6177 4.0348C87.7839 4.03906 87.9096 4.04545 87.9949 4.05398V5.58807C87.9437 5.57528 87.8265 5.55611 87.6433 5.53054C87.4643 5.50071 87.2747 5.4858 87.0744 5.4858C86.5971 5.4858 86.171 5.58594 85.796 5.78622C85.4252 5.98224 85.1312 6.25497 84.9139 6.6044C84.7008 6.94957 84.5943 7.34375 84.5943 7.78693V14H83.0858ZM93.4728 14.2045C92.5865 14.2045 91.8088 13.9936 91.1397 13.5717C90.475 13.1499 89.9551 12.5597 89.5801 11.8011C89.2093 11.0426 89.024 10.1562 89.024 9.14205C89.024 8.11932 89.2093 7.22656 89.5801 6.46378C89.9551 5.70099 90.475 5.10866 91.1397 4.68679C91.8088 4.26491 92.5865 4.05398 93.4728 4.05398C94.3592 4.05398 95.1348 4.26491 95.7995 4.68679C96.4686 5.10866 96.9885 5.70099 97.3592 6.46378C97.7342 7.22656 97.9217 8.11932 97.9217 9.14205C97.9217 10.1562 97.7342 11.0426 97.3592 11.8011C96.9885 12.5597 96.4686 13.1499 95.7995 13.5717C95.1348 13.9936 94.3592 14.2045 93.4728 14.2045ZM93.4728 12.8494C94.1461 12.8494 94.7001 12.6768 95.1348 12.3317C95.5694 11.9865 95.8912 11.5327 96.1 10.9702C96.3088 10.4077 96.4132 9.7983 96.4132 9.14205C96.4132 8.4858 96.3088 7.87429 96.1 7.30753C95.8912 6.74077 95.5694 6.28267 95.1348 5.93324C94.7001 5.58381 94.1461 5.40909 93.4728 5.40909C92.7995 5.40909 92.2456 5.58381 91.8109 5.93324C91.3762 6.28267 91.0545 6.74077 90.8457 7.30753C90.6369 7.87429 90.5325 8.4858 90.5325 9.14205C90.5325 9.7983 90.6369 10.4077 90.8457 10.9702C91.0545 11.5327 91.3762 11.9865 91.8109 12.3317C92.2456 12.6768 92.7995 12.8494 93.4728 12.8494ZM106.412 9.9858V4.18182H107.92V14H106.412V12.3381H106.31C106.08 12.8366 105.722 13.2607 105.236 13.6101C104.75 13.9553 104.136 14.1278 103.395 14.1278C102.781 14.1278 102.236 13.9936 101.759 13.7251C101.281 13.4524 100.906 13.0433 100.634 12.4979C100.361 11.9482 100.224 11.2557 100.224 10.4205V4.18182H101.733V10.3182C101.733 11.0341 101.933 11.6051 102.334 12.0312C102.739 12.4574 103.254 12.6705 103.881 12.6705C104.256 12.6705 104.637 12.5746 105.025 12.3828C105.417 12.1911 105.745 11.897 106.009 11.5007C106.278 11.1044 106.412 10.5994 106.412 9.9858ZM112.192 8.09375V14H110.683V4.18182H112.141V5.71591H112.269C112.499 5.21733 112.848 4.81676 113.317 4.5142C113.786 4.20739 114.391 4.05398 115.132 4.05398C115.797 4.05398 116.379 4.19034 116.877 4.46307C117.376 4.73153 117.764 5.14062 118.041 5.69034C118.318 6.2358 118.456 6.92614 118.456 7.76136V14H116.948V7.86364C116.948 7.09233 116.747 6.49148 116.347 6.06108C115.946 5.62642 115.396 5.40909 114.698 5.40909C114.216 5.40909 113.786 5.51349 113.406 5.7223C113.031 5.93111 112.735 6.2358 112.518 6.63636C112.301 7.03693 112.192 7.52273 112.192 8.09375ZM124.92 14.2045C124.102 14.2045 123.38 13.9979 122.753 13.5845C122.127 13.1669 121.637 12.5788 121.283 11.8203C120.929 11.0575 120.752 10.1562 120.752 9.11648C120.752 8.08523 120.929 7.19034 121.283 6.43182C121.637 5.6733 122.129 5.08736 122.76 4.67401C123.39 4.26065 124.119 4.05398 124.946 4.05398C125.585 4.05398 126.09 4.16051 126.461 4.37358C126.836 4.58239 127.121 4.82102 127.317 5.08949C127.517 5.35369 127.673 5.57102 127.784 5.74148H127.912V0.909091H129.42V14H127.963V12.4915H127.784C127.673 12.6705 127.515 12.8963 127.311 13.169C127.106 13.4375 126.814 13.6783 126.435 13.8913C126.056 14.1001 125.551 14.2045 124.92 14.2045ZM125.125 12.8494C125.73 12.8494 126.241 12.6918 126.659 12.3764C127.076 12.0568 127.394 11.6158 127.611 11.0533C127.828 10.4865 127.937 9.83239 127.937 9.09091C127.937 8.35795 127.831 7.71662 127.618 7.1669C127.404 6.61293 127.089 6.18253 126.672 5.87571C126.254 5.56463 125.738 5.40909 125.125 5.40909C124.485 5.40909 123.953 5.57315 123.527 5.90128C123.105 6.22514 122.787 6.66619 122.574 7.22443C122.365 7.77841 122.261 8.40057 122.261 9.09091C122.261 9.78977 122.368 10.4247 122.581 10.9957C122.798 11.5625 123.118 12.0142 123.539 12.3509C123.966 12.6832 124.494 12.8494 125.125 12.8494ZM136.944 2.31534V0.909091H146.762V2.31534H142.645V14H141.06V2.31534H136.944ZM150.512 8.09375V14H149.004V0.909091H150.512V5.71591H150.64C150.87 5.20881 151.215 4.80611 151.676 4.50781C152.14 4.20526 152.758 4.05398 153.529 4.05398C154.198 4.05398 154.784 4.18821 155.287 4.45668C155.79 4.72088 156.18 5.12784 156.457 5.67756C156.738 6.22301 156.879 6.91761 156.879 7.76136V14H155.37V7.86364C155.37 7.08381 155.168 6.48082 154.763 6.05469C154.362 5.62429 153.806 5.40909 153.095 5.40909C152.6 5.40909 152.157 5.51349 151.765 5.7223C151.377 5.93111 151.07 6.2358 150.845 6.63636C150.623 7.03693 150.512 7.52273 150.512 8.09375ZM163.755 14.2045C162.809 14.2045 161.993 13.9957 161.307 13.5781C160.625 13.1562 160.099 12.5682 159.728 11.8139C159.362 11.0554 159.178 10.1733 159.178 9.16761C159.178 8.16193 159.362 7.27557 159.728 6.50852C160.099 5.73722 160.614 5.13636 161.275 4.70597C161.94 4.27131 162.715 4.05398 163.602 4.05398C164.113 4.05398 164.618 4.1392 165.116 4.30966C165.615 4.48011 166.069 4.7571 166.478 5.14062C166.887 5.51989 167.213 6.02273 167.456 6.64915C167.699 7.27557 167.82 8.04687 167.82 8.96307V9.60227H160.252V8.2983H166.286C166.286 7.74432 166.175 7.25 165.954 6.81534C165.737 6.38068 165.425 6.03764 165.021 5.78622C164.62 5.5348 164.147 5.40909 163.602 5.40909C163.001 5.40909 162.481 5.55824 162.042 5.85653C161.607 6.15057 161.273 6.53409 161.038 7.0071C160.804 7.48011 160.687 7.98722 160.687 8.52841V9.39773C160.687 10.1392 160.815 10.7678 161.07 11.2834C161.33 11.7947 161.69 12.1847 162.151 12.4531C162.611 12.7173 163.146 12.8494 163.755 12.8494C164.151 12.8494 164.509 12.794 164.829 12.6832C165.153 12.5682 165.432 12.3977 165.666 12.1719C165.901 11.9418 166.082 11.6562 166.21 11.3153L167.667 11.7244C167.513 12.2188 167.256 12.6534 166.893 13.0284C166.531 13.3991 166.084 13.6889 165.551 13.8977C165.018 14.1023 164.42 14.2045 163.755 14.2045ZM183.973 0.909091H185.558V9.5767C185.558 10.4716 185.347 11.2706 184.925 11.9737C184.508 12.6726 183.918 13.2244 183.155 13.6293C182.392 14.0298 181.497 14.2301 180.47 14.2301C179.443 14.2301 178.548 14.0298 177.786 13.6293C177.023 13.2244 176.43 12.6726 176.009 11.9737C175.591 11.2706 175.382 10.4716 175.382 9.5767V0.909091H176.967V9.44886C176.967 10.0881 177.108 10.657 177.389 11.1555C177.67 11.6499 178.071 12.0398 178.591 12.3253C179.115 12.6065 179.741 12.7472 180.47 12.7472C181.199 12.7472 181.825 12.6065 182.349 12.3253C182.874 12.0398 183.274 11.6499 183.551 11.1555C183.832 10.657 183.973 10.0881 183.973 9.44886V0.909091ZM189.004 14.1023C188.688 14.1023 188.418 13.9893 188.192 13.7635C187.966 13.5376 187.853 13.267 187.853 12.9517C187.853 12.6364 187.966 12.3658 188.192 12.1399C188.418 11.9141 188.688 11.8011 189.004 11.8011C189.319 11.8011 189.589 11.9141 189.815 12.1399C190.041 12.3658 190.154 12.6364 190.154 12.9517C190.154 13.1605 190.101 13.3523 189.994 13.527C189.892 13.7017 189.754 13.8423 189.579 13.9489C189.408 14.0511 189.217 14.1023 189.004 14.1023ZM200.225 4.18182C200.148 3.53409 199.837 3.03125 199.292 2.6733C198.746 2.31534 198.077 2.13636 197.284 2.13636C196.705 2.13636 196.198 2.23011 195.763 2.41761C195.333 2.60511 194.996 2.86293 194.753 3.19105C194.515 3.51918 194.395 3.89204 194.395 4.30966C194.395 4.65909 194.478 4.95952 194.645 5.21094C194.815 5.4581 195.032 5.66477 195.297 5.83097C195.561 5.9929 195.838 6.12713 196.127 6.23366C196.417 6.33594 196.684 6.41903 196.926 6.48295L198.256 6.84091C198.597 6.9304 198.976 7.05398 199.394 7.21165C199.816 7.36932 200.218 7.58452 200.602 7.85724C200.99 8.12571 201.309 8.47088 201.561 8.89276C201.812 9.31463 201.938 9.83239 201.938 10.446C201.938 11.1534 201.752 11.7926 201.382 12.3636C201.015 12.9347 200.478 13.3885 199.771 13.7251C199.068 14.0618 198.213 14.2301 197.208 14.2301C196.27 14.2301 195.458 14.0788 194.772 13.7763C194.091 13.4737 193.554 13.0518 193.162 12.5107C192.774 11.9695 192.554 11.3409 192.503 10.625H194.14C194.182 11.1193 194.348 11.5284 194.638 11.8523C194.932 12.1719 195.303 12.4105 195.75 12.5682C196.202 12.7216 196.688 12.7983 197.208 12.7983C197.813 12.7983 198.356 12.7003 198.838 12.5043C199.319 12.304 199.701 12.027 199.982 11.6733C200.263 11.3153 200.404 10.8977 200.404 10.4205C200.404 9.9858 200.282 9.6321 200.039 9.35938C199.797 9.08665 199.477 8.86506 199.081 8.6946C198.684 8.52415 198.256 8.375 197.796 8.24716L196.185 7.78693C195.162 7.4929 194.353 7.07315 193.756 6.5277C193.159 5.98224 192.861 5.26847 192.861 4.38636C192.861 3.65341 193.059 3.0142 193.456 2.46875C193.856 1.91903 194.393 1.4929 195.066 1.19034C195.744 0.883522 196.5 0.730113 197.336 0.730113C198.179 0.730113 198.929 0.881392 199.586 1.18395C200.242 1.48224 200.762 1.89133 201.145 2.41122C201.533 2.93111 201.738 3.52131 201.759 4.18182H200.225ZM205.439 14.1023C205.124 14.1023 204.853 13.9893 204.627 13.7635C204.401 13.5376 204.289 13.267 204.289 12.9517C204.289 12.6364 204.401 12.3658 204.627 12.1399C204.853 11.9141 205.124 11.8011 205.439 11.8011C205.754 11.8011 206.025 11.9141 206.251 12.1399C206.477 12.3658 206.59 12.6364 206.59 12.9517C206.59 13.1605 206.536 13.3523 206.43 13.527C206.328 13.7017 206.189 13.8423 206.014 13.9489C205.844 14.0511 205.652 14.1023 205.439 14.1023Z" fill="#545454"/>
</svg>
